<svg width="156" height="156" viewBox="0 0 156 156" fill="none" xmlns="http://www.w3.org/2000/svg">
<g clip-path="url(#clip0_2935_686)">
<path fill-rule="evenodd" clip-rule="evenodd" d="M78 0.0634766C35.2011 0.0634766 0.404297 34.8603 0.404297 77.6592C0.404297 120.458 35.2011 155.255 78 155.255C120.799 155.255 155.596 120.458 155.596 77.6592C155.596 34.8603 120.799 0.0634766 78 0.0634766Z" fill="#FFD302"/>
<path d="M38.8789 109.667L78.0001 42.0942L117.121 109.667H38.8789ZM51.1487 102.554H104.851L78.0001 56.3201L51.1487 102.554ZM78.0001 98.9978C79.0077 98.9978 79.8524 98.6569 80.5341 97.9753C81.2157 97.2936 81.5565 96.4489 81.5565 95.4413C81.5565 94.4336 81.2157 93.589 80.5341 92.9073C79.8524 92.2256 79.0077 91.8848 78.0001 91.8848C76.9924 91.8848 76.1477 92.2256 75.4661 92.9073C74.7844 93.589 74.4436 94.4336 74.4436 95.4413C74.4436 96.4489 74.7844 97.2936 75.4661 97.9753C76.1477 98.6569 76.9924 98.9978 78.0001 98.9978ZM74.4436 88.3283H81.5565V70.546H74.4436V88.3283Z" fill="black"/>
</g>
<defs>
<clipPath id="clip0_2935_686">
<rect width="155.191" height="155.191" fill="white" transform="translate(0.404297 0.0634766)"/>
</clipPath>
</defs>
</svg>
