<svg width="25" height="25" viewBox="0 0 25 25" fill="none" xmlns="http://www.w3.org/2000/svg">
<path fill-rule="evenodd" clip-rule="evenodd" d="M11.8249 2.48535C14.2745 2.48535 16.2674 4.47827 16.2674 6.92786V7.86123C16.2674 8.27583 15.9309 8.61233 15.5163 8.61233C15.1017 8.61233 14.7652 8.27583 14.7652 7.86123V6.92786C14.7652 5.30548 13.4463 3.98755 11.8249 3.98755H6.94276C5.32339 3.98755 4.00545 5.30548 4.00545 6.92786V18.0732C4.00545 19.6946 5.32339 21.0125 6.94276 21.0125H11.8359C13.4503 21.0125 14.7652 19.6986 14.7652 18.0842V17.1398C14.7652 16.7252 15.1017 16.3887 15.5163 16.3887C15.9309 16.3887 16.2674 16.7252 16.2674 17.1398V18.0842C16.2674 20.5278 14.2785 22.5147 11.8359 22.5147H6.94276C4.49517 22.5147 2.50325 20.5228 2.50325 18.0732V6.92786C2.50325 4.47827 4.49517 2.48535 6.94276 2.48535H11.8249ZM19.9169 9.04897L22.8492 11.9682C22.8753 11.9942 22.8987 12.0212 22.9202 12.0498L22.8492 11.9682C22.8846 12.0032 22.9162 12.0414 22.9436 12.0822C22.9556 12.1007 22.9672 12.1198 22.978 12.1394C22.9868 12.1547 22.9948 12.1708 23.0023 12.187C23.0086 12.2014 23.0147 12.2158 23.0203 12.2304C23.0278 12.2494 23.0344 12.269 23.0402 12.2888C23.0446 12.3044 23.0486 12.32 23.0521 12.3358C23.0566 12.3549 23.0601 12.3742 23.0629 12.3935C23.0645 12.4062 23.066 12.4194 23.0672 12.4327C23.0695 12.4555 23.0705 12.4777 23.0705 12.5L23.0654 12.5621L23.0633 12.6019C23.0631 12.6036 23.0629 12.6053 23.0626 12.607L23.0705 12.5C23.0705 12.5556 23.0643 12.6107 23.0524 12.6642C23.0486 12.68 23.0446 12.6956 23.0401 12.711C23.0344 12.731 23.0278 12.7506 23.0204 12.7699C23.0147 12.7843 23.0086 12.7986 23.0021 12.8128C22.9948 12.8293 22.9868 12.8453 22.9781 12.861C22.9672 12.8803 22.9556 12.8994 22.9432 12.9179C22.9362 12.9289 22.9285 12.9397 22.9204 12.9503C22.8966 12.9817 22.8706 13.0112 22.8425 13.0385L19.9169 15.9521C19.7706 16.0983 19.5784 16.1714 19.3871 16.1714C19.1948 16.1714 19.0015 16.0983 18.8553 15.9501C18.5629 15.6556 18.5639 15.1809 18.8573 14.8885L20.4996 13.2511H10.2604C9.84581 13.2511 9.50932 12.9146 9.50932 12.5C9.50932 12.0854 9.84581 11.7489 10.2604 11.7489H20.5016L18.8573 10.1125C18.5639 9.8201 18.5619 9.3454 18.8553 9.05097C19.1477 8.75654 19.6224 8.75654 19.9169 9.04897Z" fill="#565656"/>
</svg>
