<svg width="300" height="400" viewBox="0 0 300 400" fill="none" xmlns="http://www.w3.org/2000/svg">
<path d="M234.94 232.078C228.057 232.078 221.242 233.428 214.883 236.05C208.525 238.673 202.748 242.517 197.881 247.363C193.014 252.208 189.154 257.961 186.519 264.292C183.885 270.624 182.53 277.409 182.53 284.262C182.53 291.115 183.885 297.901 186.519 304.232C189.154 310.563 193.014 316.316 197.881 321.162C202.748 326.007 208.525 329.851 214.883 332.473C221.242 335.096 228.057 336.446 234.94 336.446C241.822 336.446 248.638 335.096 254.996 332.473C261.355 329.851 267.133 326.007 271.999 321.162C276.866 316.316 280.726 310.563 283.36 304.232C285.994 297.901 287.349 291.115 287.349 284.262C287.349 277.409 285.994 270.624 283.36 264.292C280.726 257.961 276.866 252.208 271.999 247.363C267.133 242.517 261.355 238.673 254.996 236.05C248.638 233.428 241.822 232.078 234.94 232.078Z" fill="#FFD302"/>
<path fill-rule="evenodd" clip-rule="evenodd" d="M263.637 259.743C264.651 260.485 264.866 261.906 264.12 262.914L232.218 306.023C231.85 306.52 231.295 306.846 230.68 306.927C230.066 307.007 229.445 306.834 228.96 306.449L206.173 288.298C205.191 287.515 205.031 286.087 205.817 285.109C206.603 284.13 208.037 283.972 209.02 284.755L229.955 301.431L260.45 260.223C261.197 259.214 262.624 258.999 263.637 259.743Z" fill="white"/>
<path d="M173.094 321.302C162.436 324.022 151.27 325.469 139.767 325.469C65.5702 325.469 5.42163 265.32 5.42163 191.123C5.42163 116.926 65.5702 56.7773 139.767 56.7773C213.964 56.7773 274.113 116.926 274.113 191.123C274.113 202.626 272.667 213.792 269.947 224.449" stroke="#FFD302" stroke-width="10.8434" stroke-linecap="round"/>
<path d="M108.949 165.295C126.825 165.295 141.316 150.804 141.316 132.927C141.316 115.051 126.825 100.56 108.949 100.56C91.0726 100.56 76.5813 115.051 76.5813 132.927C76.5813 150.804 91.0726 165.295 108.949 165.295Z" fill="#FFD302"/>
<path d="M195.259 165.292C195.275 160.783 194.079 156.354 191.798 152.465C189.516 148.575 186.231 145.37 182.288 143.185C178.344 140.999 173.885 139.913 169.378 140.04C164.871 140.166 160.481 141.501 156.666 143.905C152.851 146.307 149.751 149.691 147.691 153.703C145.631 157.714 144.686 162.204 144.955 166.705C145.223 171.206 146.696 175.552 149.219 179.289C151.741 183.027 155.222 186.018 159.295 187.95V226.431L170.085 237.22L188.067 219.238L177.277 208.449L188.067 197.66L179.147 188.741C183.885 186.913 187.958 183.695 190.833 179.511C193.709 175.326 195.251 170.37 195.259 165.292ZM170.085 165.292C168.662 165.292 167.272 164.87 166.089 164.081C164.906 163.29 163.983 162.167 163.439 160.853C162.895 159.538 162.753 158.092 163.03 156.696C163.307 155.301 163.992 154.02 164.998 153.014C166.005 152.008 167.286 151.322 168.681 151.045C170.076 150.768 171.523 150.91 172.837 151.454C174.152 151.999 175.275 152.921 176.065 154.104C176.855 155.287 177.277 156.677 177.277 158.1C177.277 160.007 176.519 161.837 175.17 163.186C173.822 164.535 171.992 165.292 170.085 165.292Z" fill="#FFD302"/>
<path d="M137.285 179.822C131.762 177.36 125.782 176.086 119.735 176.082H98.1569C86.7111 176.082 75.7341 180.629 67.6407 188.723C59.5473 196.815 55.0005 207.793 55.0005 219.239V233.624H148.506V193.993C143.656 190.266 139.801 185.398 137.285 179.822Z" fill="#FFD302"/>
</svg>
