<svg width="33" height="32" viewBox="0 0 33 32" fill="none" xmlns="http://www.w3.org/2000/svg">
<path d="M16.4999 1.38599C20.5684 1.38599 24.2518 3.03498 26.9181 5.70157C29.5843 8.36779 31.2336 12.0512 31.2336 16.1198C31.2336 20.1883 29.5847 23.8717 26.9181 26.5379C24.2518 29.2041 20.5684 30.8535 16.4999 30.8535C12.4314 30.8535 8.74791 29.2045 6.0817 26.5379C3.41548 23.8717 1.76611 20.1883 1.76611 16.1198C1.76611 12.0512 3.4151 8.36779 6.0817 5.70157C8.74791 3.03536 12.4314 1.38599 16.4999 1.38599ZM26.17 6.44962C23.6952 3.9748 20.2763 2.44439 16.4999 2.44439C12.7234 2.44439 9.30456 3.97518 6.82975 6.44962C4.35493 8.92444 2.82451 12.3433 2.82451 16.1198C2.82451 19.8962 4.35531 23.3151 6.82975 25.7899C9.30456 28.2647 12.7234 29.7951 16.4999 29.7951C20.2763 29.7951 23.6952 28.2643 26.17 25.7899C28.6448 23.3151 30.1752 19.8962 30.1752 16.1198C30.1752 12.3433 28.6444 8.92444 26.17 6.44962Z" fill="#00AEEF"/>
<path d="M16.5 0.344482C20.8564 0.344482 24.7998 2.11014 27.6548 4.96508C30.5093 7.81964 32.2754 11.7635 32.2754 16.1199C32.2754 20.4763 30.5097 24.4197 27.6548 27.2747C24.8002 30.1292 20.8564 31.8953 16.5 31.8953C12.1436 31.8953 8.20015 30.1296 5.34521 27.2747C2.49065 24.4201 0.724609 20.4763 0.724609 16.1199C0.724609 11.7635 2.49027 7.82003 5.34521 4.96508C8.19977 2.11052 12.1436 0.344482 16.5 0.344482ZM27.2808 5.33911C24.5219 2.58024 20.7104 0.873684 16.5 0.873684C12.2896 0.873684 8.47848 2.58024 5.71923 5.33911C2.95999 8.09797 1.25381 11.9095 1.25381 16.1199C1.25381 20.3302 2.96037 24.1414 5.71923 26.9006C8.4781 29.6595 12.2896 31.3661 16.5 31.3661C20.7104 31.3661 24.5215 29.6595 27.2808 26.9006C30.0396 24.1418 31.7462 20.3302 31.7462 16.1199C31.7462 11.9095 30.0396 8.09835 27.2808 5.33911Z" fill="#00AEEF"/>
<path d="M4.68336 18.3571H5.37689C5.3502 18.4348 5.33724 18.5279 5.33724 18.6381V20.1963H6.12875C6.26906 20.1963 6.37696 20.1799 6.45093 20.1467L6.40022 20.4674H4.68298C4.70967 20.3896 4.72263 20.2954 4.72263 20.1834V18.6384C4.72263 18.5286 4.70967 18.4352 4.68298 18.3575L4.68336 18.3571ZM8.32448 20.4674H7.09031C6.81199 20.4674 6.67282 20.3248 6.67282 20.04V18.7845C6.67282 18.4997 6.81237 18.3571 7.09031 18.3571H8.32448C8.60395 18.3571 8.74388 18.4997 8.74388 18.7845V20.04C8.74388 20.3248 8.60395 20.4674 8.32448 20.4674ZM7.40486 20.1963H8.01146C8.05492 20.1963 8.08619 20.1872 8.10335 20.1692C8.12089 20.1513 8.12965 20.1185 8.12965 20.0716V18.7524C8.12965 18.7056 8.12089 18.6731 8.10335 18.6541C8.08581 18.635 8.05492 18.6251 8.01146 18.6251H7.40486C7.36139 18.6251 7.33013 18.635 7.31298 18.6541C7.29544 18.6731 7.28667 18.7059 7.28667 18.7524V20.0716C7.28667 20.1185 7.29544 20.1509 7.31298 20.1692C7.33052 20.1872 7.36139 20.1963 7.40486 20.1963ZM9.66541 19.5363V20.1837C9.66541 20.292 9.67837 20.3869 9.70506 20.4674H9.01305C9.0386 20.3896 9.05118 20.2954 9.05118 20.1834V18.6384C9.05118 18.5286 9.0386 18.4352 9.01305 18.3575H10.6681C10.802 18.3575 10.9049 18.3914 10.9762 18.4593C11.0475 18.5271 11.083 18.6297 11.083 18.7658V19.1932C11.083 19.2935 11.0586 19.3728 11.0094 19.4315C10.9602 19.491 10.8771 19.5283 10.76 19.5459L11.03 20.2428C11.067 20.3355 11.1177 20.4098 11.1817 20.4678H10.4798L10.1214 19.5367H9.66464L9.66541 19.5363ZM9.66541 18.6251V19.2653H10.3803C10.4196 19.2653 10.4474 19.255 10.4642 19.2344C10.4806 19.2138 10.4886 19.1772 10.4886 19.1249V18.7688C10.4886 18.7166 10.4806 18.6796 10.4645 18.6579C10.4489 18.6362 10.4203 18.6251 10.3803 18.6251H9.66541ZM13.0553 20.4674H11.338C11.3647 20.3896 11.3777 20.2954 11.3777 20.1834V18.6384C11.3777 18.5286 11.3647 18.4352 11.338 18.3575H13.0553L13.106 18.6781C13.0332 18.6426 12.9253 18.6255 12.7838 18.6255H11.9923V19.2656H12.682C12.8216 19.2656 12.9291 19.25 13.0061 19.2176V19.5863C12.9302 19.5531 12.8227 19.5367 12.682 19.5367H11.9923V20.1967H12.7838C12.9241 20.1967 13.032 20.1803 13.106 20.1471L13.0553 20.4678V20.4674ZM14.1434 18.3571L14.7416 19.8898L15.3494 18.3571H16.1291C16.1035 18.4348 16.0909 18.5279 16.0909 18.6381V20.183C16.0909 20.2951 16.1035 20.3892 16.1291 20.467H15.4565C15.4832 20.3892 15.4962 20.2951 15.4962 20.1834V18.6602H15.4897L14.7736 20.467H14.3489L13.647 18.6602H13.6405V20.1834C13.6405 20.2951 13.6531 20.3892 13.6786 20.467H13.3199C13.3466 20.3866 13.3595 20.2916 13.3595 20.183V18.6381C13.3595 18.5313 13.3466 18.4375 13.3199 18.3571H14.143H14.1434ZM17.6427 18.3571H18.3347C18.308 18.4375 18.295 18.5313 18.295 18.6381V20.183C18.295 20.292 18.308 20.3866 18.3347 20.467H17.6427C17.6682 20.3892 17.6808 20.2951 17.6808 20.183V18.6381C17.6808 18.5283 17.6682 18.4348 17.6427 18.3571ZM19.278 19.7228V20.1837C19.278 20.2954 19.2909 20.3896 19.3176 20.4674H18.6241C18.6508 20.3896 18.6637 20.2954 18.6637 20.1834V18.6384C18.6637 18.5286 18.6508 18.4352 18.6241 18.3575H20.2128C20.3844 18.3575 20.5106 18.3918 20.5922 18.4604C20.6746 18.529 20.7153 18.6384 20.7153 18.7883V19.2893C20.7153 19.4391 20.6746 19.5489 20.5922 19.6187C20.5106 19.6885 20.3844 19.7232 20.2128 19.7232H19.278V19.7228ZM19.278 18.6251V19.4517H19.9612C20.0249 19.4517 20.0672 19.4391 20.0885 19.414C20.1099 19.3888 20.1206 19.3373 20.1206 19.2584V18.8211C20.1206 18.7437 20.1095 18.6914 20.0878 18.6648C20.066 18.6381 20.0233 18.6251 19.9608 18.6251H19.2776H19.278ZM22.8783 19.5096V20.04C22.8783 20.3248 22.7387 20.4674 22.46 20.4674H21.0356L20.9826 20.1467C21.0585 20.1799 21.166 20.1963 21.3067 20.1963H22.1668C22.2103 20.1963 22.2408 20.1875 22.2576 20.17C22.2744 20.1525 22.2831 20.1201 22.2831 20.072V19.7945C22.2831 19.7464 22.2744 19.714 22.2576 19.6965C22.2408 19.6789 22.2103 19.6702 22.1668 19.6702H21.3849C21.1061 19.6702 20.9666 19.5264 20.9666 19.2393V18.7841C20.9666 18.4993 21.1061 18.3567 21.3849 18.3567H22.8123L22.8653 18.6773C22.7894 18.6419 22.6819 18.6247 22.5412 18.6247H21.6777C21.6342 18.6247 21.6037 18.6346 21.5869 18.6537C21.5702 18.6728 21.5614 18.7056 21.5614 18.7521V18.9545C21.5614 19.0014 21.5702 19.0338 21.5869 19.0529C21.6037 19.072 21.6342 19.0819 21.6777 19.0819H22.4597C22.7384 19.0819 22.8779 19.2245 22.8779 19.5093L22.8783 19.5096ZM23.1375 18.3571H23.8296C23.8029 18.4375 23.7899 18.5313 23.7899 18.6381V20.1086C23.7899 20.167 23.8219 20.1963 23.8856 20.1963H24.8323C24.8948 20.1963 24.9265 20.167 24.9265 20.1086V18.6381C24.9265 18.5283 24.9139 18.4348 24.8883 18.3571H25.2471C25.2204 18.4348 25.2075 18.5279 25.2075 18.6381V20.1052C25.2075 20.1712 25.1907 20.2322 25.1564 20.2886C25.1224 20.3446 25.0763 20.3889 25.0187 20.4205C24.9604 20.4514 24.8979 20.4674 24.83 20.4674H23.5554C23.4513 20.4674 23.3621 20.4327 23.2874 20.3622C23.2127 20.292 23.1757 20.2058 23.1757 20.1052V18.6381C23.1757 18.5283 23.1631 18.4348 23.1375 18.3571ZM26.3311 18.3571L26.9293 19.8898L27.537 18.3571H28.3167C28.2912 18.4348 28.2786 18.5279 28.2786 18.6381V20.183C28.2786 20.2951 28.2912 20.3892 28.3167 20.467H27.6442C27.6708 20.3892 27.6838 20.2951 27.6838 20.1834V18.6602H27.6773L26.9613 20.467H26.5366L25.8346 18.6602H25.8282V20.1834C25.8282 20.2951 25.8407 20.3892 25.8663 20.467H25.5075C25.5342 20.3866 25.5472 20.2916 25.5472 20.183V18.6381C25.5472 18.5313 25.5342 18.4375 25.5075 18.3571H26.3307H26.3311Z" fill="#00AEEF"/>
<path d="M10.1792 23.1175H9.74839C9.76364 23.0706 9.77127 23.0142 9.77127 22.9467V22.5719L9.44872 22.0751C9.38238 21.9691 9.3248 21.8937 9.276 21.849H9.77508C9.77508 21.894 9.78347 21.9306 9.80101 21.9592L10.0835 22.3965L10.3569 21.9611C10.3702 21.9386 10.379 21.9211 10.3821 21.9085C10.3855 21.8956 10.3882 21.8757 10.3897 21.849H10.6497C10.6009 21.8975 10.5609 21.9463 10.5296 21.9947L10.1564 22.5796V22.9471C10.1564 23.0146 10.164 23.071 10.1792 23.1179V23.1175ZM11.6978 23.1175H10.9555C10.7881 23.1175 10.7042 23.0317 10.7042 22.8606V22.1056C10.7042 21.9344 10.7881 21.8487 10.9555 21.8487H11.6978C11.866 21.8487 11.9498 21.9344 11.9498 22.1056V22.8606C11.9498 23.0317 11.8656 23.1175 11.6978 23.1175ZM11.145 22.9543H11.5099C11.5362 22.9543 11.5548 22.9486 11.5651 22.9379C11.5754 22.9273 11.5808 22.9074 11.5808 22.8792V22.0858C11.5808 22.0576 11.5754 22.0382 11.5651 22.0267C11.5548 22.0153 11.5362 22.0092 11.5099 22.0092H11.145C11.1187 22.0092 11.1 22.0149 11.0897 22.0267C11.0794 22.0382 11.0741 22.058 11.0741 22.0858V22.8792C11.0741 22.9074 11.0794 22.9269 11.0897 22.9379C11.1004 22.9486 11.1187 22.9543 11.145 22.9543ZM12.1119 21.8487H12.5278C12.5118 21.8971 12.5038 21.9535 12.5038 22.0176V22.9017C12.5038 22.9368 12.5233 22.9543 12.5614 22.9543H13.1306C13.1684 22.9543 13.1874 22.9368 13.1874 22.9017V22.0176C13.1874 21.9516 13.1798 21.8956 13.1646 21.8487H13.3804C13.3644 21.8956 13.3563 21.9516 13.3563 22.0176V22.8998C13.3563 22.9395 13.346 22.9761 13.3255 23.01C13.3053 23.0436 13.2774 23.0702 13.2427 23.0893C13.2076 23.108 13.1699 23.1175 13.1291 23.1175H12.3628C12.3002 23.1175 12.2465 23.0966 12.2019 23.0542C12.1569 23.0119 12.1348 22.9604 12.1348 22.8998V22.0176C12.1348 21.9516 12.1271 21.8956 12.1119 21.8487ZM13.9225 22.5574V22.9467C13.9225 23.0119 13.9305 23.0687 13.9465 23.1171H13.5306C13.5458 23.0703 13.5535 23.0138 13.5535 22.9463V22.0172C13.5535 21.9512 13.5458 21.8952 13.5306 21.8483H14.5257C14.6061 21.8483 14.6683 21.8685 14.711 21.9097C14.7537 21.9505 14.775 22.0122 14.775 22.0938V22.3508C14.775 22.411 14.7602 22.4587 14.7308 22.4942C14.7015 22.53 14.6511 22.5525 14.581 22.5628L14.7434 22.9818C14.7655 23.0375 14.796 23.0825 14.8349 23.1171H14.4128L14.1974 22.5574H13.9229H13.9225ZM13.9225 22.0096V22.3946H14.3522C14.3759 22.3946 14.3926 22.3885 14.4025 22.376C14.4125 22.3634 14.4174 22.3416 14.4174 22.31V22.0957C14.4174 22.0645 14.4125 22.042 14.4029 22.029C14.3934 22.016 14.3766 22.0092 14.3522 22.0092H13.9225V22.0096ZM16.8122 22.5414V22.8602C16.8122 23.0314 16.7283 23.1171 16.5609 23.1171H15.7046L15.6729 22.9242C15.7183 22.9441 15.7831 22.954 15.8678 22.954H16.3851C16.4115 22.954 16.4298 22.9486 16.4397 22.9383C16.45 22.928 16.4549 22.9082 16.4549 22.8792V22.7122C16.4549 22.6833 16.4496 22.6638 16.4397 22.6531C16.4294 22.6428 16.4111 22.6375 16.3851 22.6375H15.915C15.7473 22.6375 15.6634 22.551 15.6634 22.3786V22.1049C15.6634 21.9337 15.7473 21.8479 15.915 21.8479H16.7733L16.8049 22.0408C16.7596 22.0195 16.6947 22.0092 16.6101 22.0092H16.0908C16.0645 22.0092 16.0462 22.0149 16.0363 22.0267C16.026 22.0382 16.021 22.058 16.021 22.0858V22.2074C16.021 22.2357 16.0264 22.2551 16.0363 22.2665C16.0466 22.278 16.0649 22.2837 16.0908 22.2837H16.5609C16.7287 22.2837 16.8122 22.3695 16.8122 22.5407V22.5414ZM16.9475 21.8487H17.3646C17.3486 21.8956 17.3406 21.9516 17.3406 22.0176V22.9547H17.8164C17.9011 22.9547 17.9659 22.9448 18.0101 22.925L17.9796 23.1179H16.9471C16.9631 23.071 16.9712 23.0146 16.9712 22.9471V22.0179C16.9712 21.952 16.9631 21.8959 16.9471 21.849L16.9475 21.8487ZM19.1371 23.1175H18.3948C18.2274 23.1175 18.1436 23.0317 18.1436 22.8606V22.1056C18.1436 21.9344 18.2274 21.8487 18.3948 21.8487H19.1371C19.3049 21.8487 19.3892 21.9344 19.3892 22.1056V22.8606C19.3892 23.0317 19.3049 23.1175 19.1371 23.1175ZM18.5839 22.9543H18.9488C18.9751 22.9543 18.9938 22.9486 19.0041 22.9379C19.0144 22.9273 19.0197 22.9074 19.0197 22.8792V22.0858C19.0197 22.0576 19.0144 22.0382 19.0041 22.0267C18.9938 22.0153 18.9751 22.0092 18.9488 22.0092H18.5839C18.5576 22.0092 18.5389 22.0149 18.5286 22.0267C18.5183 22.0382 18.513 22.058 18.513 22.0858V22.8792C18.513 22.9074 18.5183 22.9269 18.5286 22.9379C18.5393 22.9486 18.5576 22.9543 18.5839 22.9543ZM20.3168 23.1175H19.8131C19.6458 23.1175 19.5619 23.0317 19.5619 22.8606V22.1056C19.5619 21.9344 19.6458 21.8487 19.8131 21.8487H20.7366L20.7682 22.0416C20.7228 22.0202 20.658 22.0099 20.5738 22.0099H20.0026C19.9763 22.0099 19.958 22.0157 19.9473 22.0275C19.937 22.0389 19.9317 22.0587 19.9317 22.0866V22.88C19.9317 22.9082 19.937 22.9277 19.9473 22.9387C19.958 22.9494 19.9763 22.9551 20.0026 22.9551H20.3927C20.4308 22.9551 20.4502 22.9376 20.4502 22.9025V22.5231H20.1265C20.1021 22.5231 20.0716 22.5304 20.0347 22.5449V22.3599H20.8307C20.8155 22.4072 20.8079 22.4644 20.8079 22.5315V22.9475C20.8079 23.0146 20.8155 23.0714 20.8307 23.1179H20.499L20.48 23.0054H20.475C20.4682 23.0478 20.4533 23.0767 20.4316 23.0931C20.4098 23.1095 20.3713 23.1175 20.3168 23.1175ZM21.7965 22.7561H21.225L21.1445 22.9471C21.122 23.002 21.111 23.0588 21.111 23.1175H20.8692C20.9108 23.0607 20.9558 22.9795 21.0035 22.8739L21.4213 21.931L21.3687 21.8487H21.7793L22.2426 22.8781C22.2575 22.9116 22.2738 22.9475 22.2914 22.9848C22.3093 23.0222 22.3246 23.0508 22.3368 23.0702C22.3493 23.0901 22.3623 23.1057 22.3756 23.1179H21.9124C21.9151 23.1076 21.9162 23.0977 21.9162 23.0882C21.9162 23.0474 21.8987 22.9875 21.8636 22.9082L21.7965 22.7568V22.7561ZM21.2993 22.5929H21.7233L21.5094 22.1133L21.2993 22.5929ZM23.6998 23.1175H23.2739L22.6292 22.09H22.6254V22.9463C22.6254 23.0138 22.633 23.0703 22.6483 23.1171H22.4325C22.4485 23.0687 22.4565 23.0115 22.4565 22.9463V22.0172C22.4565 21.9531 22.4485 21.8967 22.4325 21.8483H22.8938L23.5271 22.8564H23.5309V22.0172C23.5309 21.9512 23.5229 21.8952 23.5069 21.8483H23.7234C23.7074 21.8952 23.6994 21.9512 23.6994 22.0172V23.1171L23.6998 23.1175Z" fill="#00AEEF"/>
<path d="M13.4468 25.5585H12.6129C12.6259 25.5208 12.6324 25.475 12.6324 25.4205V24.6706C12.6324 24.6172 12.6259 24.5718 12.6129 24.5341H13.4468L13.4712 24.6896C13.4357 24.6725 13.3835 24.6641 13.3148 24.6641H12.9305V24.9748H13.2653C13.3328 24.9748 13.3854 24.9672 13.4223 24.9516V25.1304C13.3857 25.1144 13.3331 25.1064 13.2653 25.1064H12.9305V25.4266H13.3148C13.3831 25.4266 13.4353 25.4186 13.4712 25.4026L13.4468 25.5582V25.5585ZM14.5017 25.0934V25.3508C14.5017 25.4892 14.4342 25.5582 14.2989 25.5582H13.6076L13.5821 25.4026C13.6187 25.4186 13.6713 25.4266 13.7392 25.4266H14.1567C14.1776 25.4266 14.1925 25.4224 14.2009 25.414C14.2093 25.4057 14.2135 25.3896 14.2135 25.3664V25.2314C14.2135 25.2082 14.2093 25.1921 14.2009 25.1838C14.1929 25.1754 14.178 25.1712 14.1567 25.1712H13.7769C13.6416 25.1712 13.5741 25.1014 13.5741 24.9622V24.7415C13.5741 24.6031 13.642 24.5341 13.7769 24.5341H14.4701L14.4956 24.6896C14.459 24.6725 14.4064 24.6641 14.3385 24.6641H13.9191C13.8982 24.6641 13.8833 24.6687 13.8749 24.6782C13.8669 24.6873 13.8623 24.7034 13.8623 24.7259V24.8242C13.8623 24.8471 13.8665 24.8627 13.8749 24.8719C13.8833 24.881 13.8978 24.886 13.9191 24.886H14.2989C14.4342 24.886 14.5017 24.9554 14.5017 25.0934ZM14.6001 24.5341H15.4724L15.498 24.6896C15.4621 24.6725 15.4095 24.6641 15.3405 24.6641H15.1853V25.4205C15.1853 25.475 15.1914 25.5208 15.2036 25.5585H14.8677C14.8807 25.5208 14.8872 25.475 14.8872 25.4205V24.6641H14.7316C14.6634 24.6641 14.6111 24.6725 14.5745 24.6896L14.6001 24.5341ZM15.7961 25.5585H15.498V25.3477H15.7961V25.5585ZM17.5366 25.5585H16.5728V25.1147C16.5728 25.0785 16.5781 25.0492 16.5888 25.0263C16.5995 25.0034 16.6166 24.9851 16.641 24.971C16.665 24.9569 16.6978 24.9455 16.739 24.9378L17.2053 24.8444C17.2404 24.8376 17.2579 24.8177 17.2579 24.7846V24.711C17.2579 24.6927 17.2533 24.6805 17.2438 24.6736C17.2343 24.6671 17.2164 24.6637 17.19 24.6637H16.7123C16.6597 24.6637 16.612 24.6702 16.5697 24.6831L16.5854 24.5337H17.3418C17.4848 24.5337 17.5561 24.6004 17.5561 24.7335V24.9043C17.5561 24.9641 17.5427 25.0088 17.516 25.0373C17.489 25.0663 17.4451 25.0869 17.3837 25.0995L16.9106 25.1963C16.8782 25.2021 16.8618 25.2257 16.8618 25.2673V25.4262H17.407C17.447 25.4262 17.4989 25.4194 17.5625 25.4053L17.537 25.5578L17.5366 25.5585ZM17.8767 24.5341H18.5138C18.5504 24.5341 18.5832 24.5409 18.6114 24.555C18.64 24.5691 18.6617 24.5901 18.677 24.6183C18.6922 24.6469 18.6999 24.6809 18.6999 24.7198V25.3725C18.6999 25.4118 18.6922 25.4453 18.677 25.4739C18.6617 25.5021 18.64 25.5235 18.6114 25.5372C18.5832 25.5513 18.5504 25.5582 18.5138 25.5582H17.8767C17.8401 25.5582 17.8073 25.5513 17.7791 25.5372C17.7505 25.5231 17.7288 25.5021 17.7135 25.4739C17.6987 25.4453 17.6907 25.4114 17.6907 25.3725V24.7198C17.6907 24.6595 17.7074 24.6134 17.7406 24.5814C17.7738 24.5497 17.8191 24.5337 17.8763 24.5337L17.8767 24.5341ZM18.3457 24.6641H18.0449C18.0075 24.6641 17.9892 24.6778 17.9892 24.7049V25.3874C17.9892 25.4137 18.0075 25.4266 18.0449 25.4266H18.3457C18.383 25.4266 18.4013 25.4133 18.4013 25.3874V24.7049C18.4013 24.6778 18.3827 24.6641 18.3457 24.6641ZM19.7983 25.5585H18.8345V25.1147C18.8345 25.0785 18.8398 25.0492 18.8505 25.0263C18.8612 25.0034 18.8787 24.9851 18.9027 24.971C18.9267 24.9569 18.9595 24.9455 19.0007 24.9378L19.467 24.8444C19.5021 24.8376 19.5196 24.8177 19.5196 24.7846V24.711C19.5196 24.6927 19.515 24.6805 19.5055 24.6736C19.496 24.6671 19.478 24.6637 19.4517 24.6637H18.974C18.9214 24.6637 18.8737 24.6702 18.8314 24.6831L18.847 24.5337H19.6035C19.7465 24.5337 19.8178 24.6004 19.8178 24.7335V24.9043C19.8178 24.9641 19.8044 25.0088 19.7777 25.0373C19.7507 25.0663 19.7068 25.0869 19.6454 25.0995L19.1723 25.1963C19.1399 25.2021 19.1235 25.2257 19.1235 25.2673V25.4262H19.6687C19.7087 25.4262 19.7606 25.4194 19.8242 25.4053L19.7987 25.5578L19.7983 25.5585ZM20.0702 24.7865H19.9417V24.6626L20.2616 24.5341H20.3683V25.4205C20.3683 25.475 20.3744 25.5208 20.387 25.5585H20.0511C20.0641 25.5208 20.0705 25.475 20.0705 25.4205V24.7865H20.0702Z" fill="#00AEEF"/>
<path fill-rule="evenodd" clip-rule="evenodd" d="M24.4167 15.1309C21.9133 14.9209 19.5064 15.5797 16.6007 17.2401C18.0918 15.2914 20.2849 14.0615 23.4243 13.6733C24.0858 14.6452 24.4167 15.1309 24.4167 15.1309ZM8.58337 15.1309C11.0868 14.9209 13.4937 15.5797 16.3994 17.2401C14.9082 15.2914 12.7152 14.0615 9.57582 13.6733C8.91432 14.6452 8.58337 15.1309 8.58337 15.1309Z" fill="#58B947"/>
<path fill-rule="evenodd" clip-rule="evenodd" d="M26.138 17.054C23.0135 16.468 20.2425 16.4802 16.6006 17.4574C19.2668 16.0307 22.28 15.2994 25.1456 15.6738C25.8071 16.5938 26.138 17.054 26.138 17.054ZM6.86182 17.054C9.98632 16.468 12.7574 16.4802 16.3993 17.4574C13.733 16.0307 10.7199 15.2994 7.85426 15.6738C7.19276 16.5938 6.86182 17.054 6.86182 17.054Z" fill="#00AEEF"/>
<path fill-rule="evenodd" clip-rule="evenodd" d="M21.9044 10.1223C20.1365 12.2105 18.3685 14.2991 16.6006 16.3873L16.4767 6.58638C17.5198 9.72308 19.329 10.9016 21.9044 10.1223ZM20.6848 8.58842C20.5475 9.09666 20.0835 9.47068 19.5318 9.47068C18.8722 9.47068 18.3377 8.93614 18.3377 8.27655C18.3377 7.79005 18.6286 7.37179 19.0457 7.18573L18.9717 7.05381L18.3514 5.94775L19.5318 6.41061L20.7122 6.87348L21.3325 7.97954L21.9529 9.0856L20.7724 8.62274L20.6848 8.58842Z" fill="#00AEEF"/>
<path fill-rule="evenodd" clip-rule="evenodd" d="M10.8442 10.0467C12.4356 11.9268 14.0271 13.8068 15.6189 15.6868L15.7306 6.86388C14.7915 9.68756 13.1627 10.7486 10.8442 10.0467ZM11.9423 8.66614C12.0658 9.12366 12.4837 9.46032 12.9801 9.46032C13.5737 9.46032 14.0549 8.97916 14.0549 8.38552C14.0549 7.94783 13.7933 7.57113 13.4178 7.40337L13.4845 7.2848L14.0427 6.28931L12.9801 6.70603L11.9175 7.12276L11.3593 8.11825L10.8011 9.11375L11.8637 8.69702L11.9427 8.66614H11.9423Z" fill="#58B947"/>
<path fill-rule="evenodd" clip-rule="evenodd" d="M16.2442 3.54663L16.5873 4.60961L17.7045 4.60732L16.7993 5.26234L17.1467 6.32379L16.2442 5.66572L15.3417 6.32379L15.6891 5.26234L14.7839 4.60732L15.9011 4.60961L16.2442 3.54663Z" fill="#00AEEF"/>
</svg>
