<svg width="298" height="226" viewBox="0 0 298 226" fill="none" xmlns="http://www.w3.org/2000/svg">
<g clip-path="url(#clip0_2982_579)">
<path d="M21.7662 214.411C21.7662 214.411 -5.71257 195.104 6.91685 170.833C19.555 146.562 44.8226 109.303 32.1757 90.3017C19.555 71.3095 18.2702 10.4611 90.9265 1.12668C148.882 -6.31113 166.493 24.2966 175.478 45.1854C187.33 72.7429 176.737 123.042 232.149 129.676C287.57 136.31 319.226 163.71 279.529 208.38C262.18 227.897 21.7662 214.402 21.7662 214.402V214.411Z" fill="#C9D6F2"/>
<path d="M120.992 199.22C80.0976 208.161 46.7891 195.75 58.1512 174.634C69.5133 153.518 62.5475 150.852 53.7899 144.21C45.0236 137.568 25.3409 119.074 44.5167 98.7616C63.7186 78.4584 49.1314 72.5676 43.1357 60.6199C25.6206 25.7644 96.6425 11.4482 77.4231 43.533C62.9932 67.6119 63.7536 86.0448 81.6883 98.2984C99.6316 110.552 103.206 117.011 102.42 132.157C101.624 147.304 95.4277 179.485 113.712 178.139C131.979 176.802 141.96 194.632 120.984 199.22H120.992Z" fill="#EBF2FF"/>
<path d="M46.7017 55.8655C44.8051 52.2559 44.3594 34.566 61.5249 35.4837C71.9693 36.043 66.5504 50.3068 64.1819 61.2844C61.8221 72.2619 63.4302 89.4974 67.8003 96.5943C75.8674 109.687 74.1368 115.193 64.1557 126.433C64.1557 126.433 58.9728 134.78 68.5344 143.73C78.0961 152.679 74.399 177.335 85.5077 181.329C96.6163 185.324 102.892 193.836 95.2791 194.632C87.684 195.427 56.176 198.495 64.4703 177.746C76.5578 147.549 52.9946 138.599 47.1212 131.896C41.7373 125.751 37.1313 112.029 52.7499 94.8114C64.8286 81.4915 52.5313 66.9742 46.7105 55.8655H46.7017Z" fill="#CBDBF4"/>
<path d="M89.196 213.013L88.5667 215.784C87.9724 215.635 73.726 212.052 58.3784 202.201C37.9441 189.083 25.5245 171.078 22.4829 150.084L25.1312 149.63C32.1931 198.373 88.6191 212.873 89.1872 213.013H89.196Z" fill="#347941"/>
<path d="M24.4145 152.89C24.4145 152.89 9.57384 145.015 15.7269 126.879C15.7269 126.879 28.8982 137.577 24.4145 152.89Z" fill="#347941"/>
<path d="M29.1691 167.713C29.1691 167.713 8.93578 174.478 0.711365 151.631C0.711365 151.631 11.5054 147.672 29.1691 167.713Z" fill="#347941"/>
<path d="M28.4786 167.8C28.4786 167.8 47.261 157.321 37.9004 134.999C37.9004 134.999 27.6483 140.313 28.4786 167.8Z" fill="#347941"/>
<path d="M39.7009 184.712C39.7009 184.712 20.193 193.635 9.7923 171.829C9.7923 171.829 20.1406 166.707 39.7009 184.712Z" fill="#347941"/>
<path d="M39.0104 184.87C39.0104 184.87 56.6916 172.415 45.1896 151.238C45.1896 151.238 35.4882 157.644 39.0104 184.87Z" fill="#347941"/>
<path d="M56.4906 199.483C56.4906 199.483 38.687 211.781 24.8952 192.212C24.8952 192.212 34.2733 185.289 56.4906 199.483Z" fill="#347941"/>
<path d="M55.835 199.763C55.835 199.763 71.2525 184.302 56.4905 165.545C56.4905 165.545 47.9602 173.604 55.835 199.763Z" fill="#347941"/>
<path d="M73.7523 208.747C73.7523 208.747 59.5846 225.502 41.4052 210.443C41.4052 210.443 48.7818 201.204 73.7523 208.747Z" fill="#347941"/>
<path d="M73.2016 209.193C73.2016 209.193 84.319 190.061 65.4055 176.05C65.4055 176.05 59.1476 186.154 73.2016 209.193Z" fill="#347941"/>
<path d="M194.619 213.074C233.783 223.763 266.646 213.397 256.691 192.377C246.736 171.366 253.606 169.137 262.424 163.133C271.243 157.137 291.214 140.208 273.647 119.581C256.07 98.9545 270.483 93.9814 276.881 82.7067C295.558 49.8177 227.499 32.4337 244.516 64.4574C257.294 88.4926 255.651 106.296 237.664 117.274C219.694 128.251 215.91 134.334 215.927 149.035C215.945 163.736 220.35 195.209 202.712 193.007C185.083 190.804 174.534 207.576 194.619 213.056V213.074Z" fill="#7585F8"/>
<g style="mix-blend-mode:overlay" opacity="0.2">
<path d="M273.664 77.9346C275.683 74.5347 276.994 57.4216 260.327 57.4566C250.188 57.4828 254.733 71.5631 256.481 82.3134C258.22 93.0637 255.808 109.67 251.228 116.33C242.768 128.61 244.166 134.028 253.282 145.399C253.282 145.399 257.88 153.746 248.169 161.936C238.468 170.134 240.828 194.186 229.876 197.508C218.916 200.82 212.414 208.765 219.747 209.901C227.071 211.046 257.434 215.582 250.416 195.078C240.216 165.231 263.473 157.732 269.495 151.535C275.01 145.854 280.149 132.787 265.885 115.351C254.847 101.847 267.485 88.4052 273.664 77.9346Z" fill="#F6F5F7"/>
</g>
<path d="M188.92 212.383L188.326 208.756C245.958 199.334 270.894 154.201 271.147 153.737L274.39 155.485C274.136 155.94 248.405 202.673 188.929 212.383H188.92Z" fill="#55DE7E"/>
<path d="M270.902 156.823C270.902 156.823 278.428 137.359 288.243 143.573C292.412 146.212 290.165 155.652 270.902 156.823Z" fill="#55DE7E"/>
<path d="M266.541 163.185C266.541 163.185 285.726 152.094 287.727 163.308C288.566 168.089 280.158 174.346 266.541 163.185Z" fill="#55DE7E"/>
<path d="M266.576 165.256C266.576 165.256 278.323 147.339 266.226 145.609C261.078 144.857 254.401 152.723 266.576 165.256Z" fill="#55DE7E"/>
<path d="M253.798 178.244C253.798 178.244 266.445 160.764 254.497 158.492C249.41 157.513 242.375 165.091 253.798 178.244Z" fill="#55DE7E"/>
<path d="M242.593 188.138C242.593 188.138 255.144 170.641 243.196 168.386C238.101 167.415 231.091 175.019 242.593 188.138Z" fill="#55DE7E"/>
<path d="M226.94 197.875C226.94 197.875 242.436 182.422 231.353 178.174C226.625 176.365 218.401 182.824 226.94 197.875Z" fill="#55DE7E"/>
<path d="M213.375 204.054C213.375 204.054 228.426 188.226 217.16 184.301C212.388 182.641 204.32 189.292 213.375 204.054Z" fill="#55DE7E"/>
<path d="M194.811 209.385C194.811 209.385 213.567 197.569 204.277 190.778C200.309 187.876 190.817 192.394 194.811 209.385Z" fill="#55DE7E"/>
<path d="M257.163 174.915C257.163 174.915 276.382 163.824 278.358 175.046C279.205 179.818 270.815 186.058 257.163 174.915Z" fill="#55DE7E"/>
<path d="M245.696 185.254C245.696 185.254 264.907 174.18 266.891 185.394C267.747 190.157 259.339 196.415 245.696 185.254Z" fill="#55DE7E"/>
<path d="M233.102 193.662C233.102 193.662 254.051 186.679 253.169 198.294C252.81 203.241 243.275 207.707 233.102 193.662Z" fill="#55DE7E"/>
<path d="M218.226 201.554C218.226 201.554 239.63 196.572 237.428 208.179C236.493 213.117 226.643 216.683 218.226 201.554Z" fill="#55DE7E"/>
<path d="M202.45 207.078C202.45 207.078 224.047 204.937 220.105 216.325C218.401 221.167 208.253 223.422 202.45 207.078Z" fill="#55DE7E"/>
<path d="M278.559 217.723C278.559 222.303 219.581 226.009 146.819 226.009C74.0582 226.009 15.0801 222.294 15.0801 217.723C15.0801 213.152 74.0669 209.438 146.819 209.438C219.572 209.438 278.559 213.143 278.559 217.723Z" fill="#ACBFE2"/>
<path d="M246.474 124.406C246.474 175.396 205.142 216.719 154.152 216.719C103.163 216.719 61.8307 175.387 61.8307 124.406C61.8307 73.4251 103.163 32.0845 154.152 32.0845C205.142 32.0845 246.474 73.4163 246.474 124.406Z" fill="#AED2DF"/>
<path d="M162.385 158.719C165.069 163.081 162.359 169.627 156.337 173.324C150.315 177.021 143.253 176.479 140.579 172.109L109.753 121.906C107.069 117.536 109.77 110.999 115.801 107.301C121.823 103.604 128.885 104.146 131.559 108.508L162.385 158.711V158.719Z" fill="#1F4EAD"/>
<path d="M162.725 171.411C157.548 176.953 148.373 177.446 142.251 172.51C136.109 167.572 135.342 159.073 140.52 153.531L200.018 89.8158C205.195 84.274 214.37 83.7814 220.502 88.7185C226.634 93.6556 227.412 102.147 222.233 107.698L162.724 171.42L162.725 171.411Z" fill="#1F4EAD"/>
<path d="M81.9242 94.445C78.6816 98.5178 80.1063 102.442 80.3335 103.168C81.1725 105.807 83.3226 108.263 83.9781 107.503C84.756 106.594 81.8106 105.641 83.1653 103.028C84.52 100.414 82.7982 99.488 83.6984 97.1456C84.5724 94.812 86.2942 95.6161 91.7568 95.7822C93.9942 95.8521 94.5536 95.0917 94.4749 94.1653C91.7043 90.1973 85.3416 90.1623 81.9417 94.445H81.9242Z" fill="#062440"/>
<path d="M77.659 111.61C78.9351 111.016 83.1478 110.693 85.3416 114.014C88.3045 118.463 89.3183 129.283 95.9258 132.552C102.551 135.803 106.676 133.032 109.674 131.52C112.672 130.026 113.17 128.007 115.032 127.325C116.867 126.652 117.592 128.881 113.345 132.447C111.3 134.151 102.297 143.791 93.7058 141.379C82.4311 138.206 70.0814 115.071 77.6503 111.619L77.659 111.61Z" fill="#E28C71"/>
<path d="M87.4566 181.497C85.6125 192.789 84.1179 216.728 89.0735 216.536C94.0379 216.343 96.6949 214.517 93.7845 213.817C90.8565 213.118 90.7516 212.786 90.7779 211.886C91.0051 206.24 95.3664 195.49 97.0183 187.256C98.9324 177.712 89.091 171.612 87.4566 181.479V181.497Z" fill="#F27851"/>
<path d="M86.8186 214.272C86.8186 214.272 91.2673 215.88 93.7845 213.826C93.7845 213.826 98.6964 214.237 95.716 215.732C92.7531 217.235 86.9147 218.686 86.8186 214.272Z" fill="#6E86CC"/>
<path d="M69.2773 135.077C69.2773 135.077 94.8333 153.021 98.5129 162.198C101.817 170.448 94.1516 203.696 94.1516 203.696C94.1516 203.696 88.7677 205.846 83.8208 202.813L84.4676 176.96L62.897 157.233L69.2773 135.086V135.077Z" fill="#C92F3B"/>
<path d="M52.7848 182.894C43.3455 190.69 25.2797 208.922 29.4225 212.261C33.5566 215.591 36.9914 215.993 35.1211 213.397C33.2682 210.766 33.3993 210.408 34.0635 209.718C38.2238 205.33 49.2887 199.728 56.3944 194.274C64.6625 187.946 61.0267 176.094 52.776 182.894H52.7848Z" fill="#F27851"/>
<path d="M29.1953 208.853C29.1953 208.853 31.6512 213.275 35.121 213.397C35.121 213.397 38.7831 217.173 35.3395 216.282C31.8959 215.399 26.1887 212.471 29.1953 208.853Z" fill="#6E86CC"/>
<path d="M65.4841 134.946C65.4841 134.946 78.7428 165.152 75.2468 175.124C72.1091 184.1 42.5501 205.487 42.5501 205.487C42.5501 205.487 36.6943 203.424 34.8414 197.499L53.5626 177.125C53.5626 177.125 46.0811 153.58 49.752 144.848C49.8831 144.551 49.2363 146.928 49.2363 146.928L65.4841 134.946Z" fill="#E03D51"/>
<path d="M81.4348 148.318C86.3292 141.859 89.0998 131.843 89.2921 124.064C89.5631 113.279 80.0364 110.499 73.9795 109.931C67.9226 109.346 58.0201 108.175 58.4309 121.617C58.7018 130.995 55.2932 135.889 50.5386 143.825C50.4075 144.035 50.2851 144.21 50.154 144.402C50.1365 144.402 50.1278 144.376 50.1278 144.376C50.1278 144.394 50.1365 144.402 50.154 144.402C43.4504 152.635 75.8761 155.659 81.4348 148.327V148.318Z" fill="#FCDCDA"/>
<path d="M50.5386 143.808C50.4075 144.018 50.2851 144.193 50.154 144.385C50.1365 144.385 50.1278 144.359 50.1278 144.359C50.1278 144.376 50.1365 144.385 50.154 144.385C44.9624 150.757 63.1767 153.99 74.2679 151.762C75.9897 149.183 67.6517 148.502 64.5664 146.002C57.452 140.233 82.8157 139.744 78.4457 137.62C73.726 135.348 66.7077 136.257 69.8017 129.352C72.8782 122.439 70.23 114.171 67.3021 111.374C64.2518 108.446 59.1476 111.881 58.5882 118.243C58.4484 119.257 58.3697 120.358 58.4134 121.608C58.6843 130.986 55.2757 135.881 50.5211 143.817L50.5386 143.808Z" fill="#EFBEBD"/>
<path d="M74.8447 102.021C74.8447 102.021 76.1819 107.134 72.4062 109.022C68.5344 110.945 80.4034 120.402 80.5957 117.596C80.8404 113.978 79.407 111.539 81.9067 107.799L74.8534 102.021H74.8447Z" fill="#E67052"/>
<path d="M83.9694 94.5138C86.4603 97.9137 87.378 110.998 83.7072 113.174C82.099 114.1 76.6802 111.697 74.1106 105.544C73.0443 103.018 72.0129 98.4556 75.0807 94.6362C76.4704 92.8969 81.0764 90.5633 83.9694 94.5225V94.5138Z" fill="#EE9D7F"/>
<path d="M86.1631 97.3463C87.4916 94.1911 92.2375 94.9428 90.7254 92.714C89.7116 91.2195 89.7028 92.347 78.4106 90.0396C73.1404 88.9645 72.1003 91.2195 71.0952 94.1911C70.16 96.9355 70.4572 103.683 74.0668 107.651C77.6677 111.61 73.9532 105.011 75.3341 102.022C76.7151 99.0419 77.624 100.3 79.6168 100.799C81.6008 101.288 84.0305 102.442 86.1718 97.355L86.1631 97.3463Z" fill="#353A66"/>
<path d="M58.5923 152.591L65.8137 162.938L123.915 122.373L131.38 109.467L116.687 112.026L58.5923 152.591Z" fill="#8A8A8A"/>
<path d="M120.696 117.758L62.5927 158.322L65.8129 162.935L123.917 122.371L120.696 117.758Z" fill="#707070"/>
<path d="M131.38 109.262L128.706 113.894L126.119 110.18L131.38 109.262Z" fill="#1F1440"/>
<path d="M65.0908 110.543C66.5242 110.657 69.0238 112.825 69.3472 116.845C69.8017 122.229 66.7514 131.913 70.9991 138.031C75.2642 144.167 80.281 143.73 83.6722 143.869C87.0808 144.018 88.5055 142.48 90.472 142.768C92.4385 143.065 91.984 145.408 86.469 146.483C83.8383 146.998 71.1302 151.106 64.7062 144.752C56.2895 136.423 56.7003 109.879 65.0908 110.543Z" fill="#E28C71"/>
</g>
<defs>
<clipPath id="clip0_2982_579">
<rect width="296.577" height="226.019" fill="white" transform="translate(0.711365 -0.00927734)"/>
</clipPath>
</defs>
</svg>
