<svg width="17" height="16" className="text-custom-900" viewBox="0 0 17 16" fill="currentColor" xmlns="http://www.w3.org/2000/svg">
<path d="M8.50008 12.9964C9.54175 12.9964 10.4272 12.6318 11.1563 11.9027C11.8855 11.1735 12.2501 10.2881 12.2501 9.24642C12.2501 8.20475 11.8855 7.31934 11.1563 6.59017C10.4272 5.861 9.54175 5.49642 8.50008 5.49642C7.45841 5.49642 6.573 5.861 5.84383 6.59017C5.11466 7.31934 4.75008 8.20475 4.75008 9.24642C4.75008 10.2881 5.11466 11.1735 5.84383 11.9027C6.573 12.6318 7.45841 12.9964 8.50008 12.9964ZM8.50008 11.3298C7.91675 11.3298 7.42369 11.1284 7.02091 10.7256C6.61814 10.3228 6.41675 9.82975 6.41675 9.24642C6.41675 8.66309 6.61814 8.17003 7.02091 7.76725C7.42369 7.36447 7.91675 7.16309 8.50008 7.16309C9.08341 7.16309 9.57647 7.36447 9.97925 7.76725C10.382 8.17003 10.5834 8.66309 10.5834 9.24642C10.5834 9.82975 10.382 10.3228 9.97925 10.7256C9.57647 11.1284 9.08341 11.3298 8.50008 11.3298ZM1.83341 15.9131C1.37508 15.9131 0.98272 15.7499 0.656331 15.4235C0.329942 15.0971 0.166748 14.7048 0.166748 14.2464V4.24642C0.166748 3.78809 0.329942 3.39573 0.656331 3.06934C0.98272 2.74295 1.37508 2.57975 1.83341 2.57975H4.45841L6.00008 0.913086H11.0001L12.5417 2.57975H15.1667C15.6251 2.57975 16.0174 2.74295 16.3438 3.06934C16.6702 3.39573 16.8334 3.78809 16.8334 4.24642V14.2464C16.8334 14.7048 16.6702 15.0971 16.3438 15.4235C16.0174 15.7499 15.6251 15.9131 15.1667 15.9131H1.83341ZM1.83341 14.2464H15.1667V4.24642H11.7917L10.2709 2.57975H6.72925L5.20841 4.24642H1.83341V14.2464Z"/>
</svg>
