<svg width="240" height="224" viewBox="0 0 240 224" fill="none" xmlns="http://www.w3.org/2000/svg">
<g clip-path="url(#clip0_2849_2138)">
<mask id="mask0_2849_2138" style="mask-type:luminance" maskUnits="userSpaceOnUse" x="0" y="0" width="240" height="224">
<path d="M240 0.0634766H0V223.437H240V0.0634766Z" fill="white"/>
</mask>
<g mask="url(#mask0_2849_2138)">
<path d="M200.409 111.389C200.409 116.534 193.239 120.909 192.275 125.772C191.285 130.784 196.217 137.56 194.305 142.17C192.36 146.861 184.061 148.156 181.269 152.326C178.457 156.526 180.418 164.686 176.856 168.247C173.294 171.81 165.133 169.847 160.934 172.66C156.764 175.451 155.469 183.75 150.779 185.696C146.169 187.606 139.392 182.674 134.383 183.665C129.519 184.627 125.144 191.796 120 191.796C114.855 191.796 110.479 184.627 105.617 183.665C100.606 182.673 93.828 187.606 89.217 185.695C84.5275 183.749 83.2323 175.449 79.0626 172.658C74.8619 169.846 66.7017 171.806 63.1403 168.244C59.5789 164.683 61.5399 156.523 58.7272 152.321C55.9378 148.153 47.6382 146.858 45.6939 142.168C43.7815 137.558 48.7144 130.78 47.7234 125.77C46.7612 120.907 39.5908 116.534 39.5908 111.389C39.5908 106.243 46.7612 101.869 47.7234 97.0058C48.7144 91.9944 43.7826 85.2167 45.6939 80.6068C47.6393 75.9161 55.939 74.621 58.7306 70.4513C61.5432 66.2506 59.5822 58.0915 63.1436 54.529C66.7061 50.9676 74.8652 52.9296 79.067 50.117C83.2356 47.3265 84.5297 39.0269 89.2203 37.0814C93.8302 35.1702 100.608 40.1031 105.617 39.1121C110.48 38.1498 114.855 30.9795 120 30.9795C125.145 30.9795 129.519 38.1498 134.383 39.1121C139.394 40.1031 146.172 35.1713 150.782 37.0836C155.472 39.028 156.767 47.3287 160.937 50.1192C165.137 52.9319 173.297 50.9709 176.859 54.5334C180.421 58.0937 178.459 66.255 181.271 70.4568C184.063 74.6254 192.361 75.9195 194.306 80.609C196.218 85.2189 191.285 91.9966 192.276 97.0069C193.239 101.869 200.409 106.243 200.409 111.389Z" fill="#FFD302"/>
<mask id="mask1_2849_2138" style="mask-type:alpha" maskUnits="userSpaceOnUse" x="63" y="64" width="113" height="95">
<path d="M79.1562 106.329L113.132 136.69L160.121 79.9429" stroke="black" stroke-width="31" stroke-linecap="round"/>
</mask>
<g mask="url(#mask1_2849_2138)">
<path d="M150.45 80.7744C153.487 82.845 156.389 85.114 159.138 87.5635C160.227 88.6686 160.228 90.4584 159.14 91.5636C159.14 91.5636 117.137 142.292 115.737 143.634C114.744 145.006 112.841 145.3 111.49 144.29C111.35 144.185 111.219 144.069 111.1 143.943C109.062 142.418 81.36 120.977 81.36 120.977C79.9401 119.776 79.6244 117.693 80.6236 116.115C82.3941 113.354 84.3947 110.752 86.604 108.339C87.8738 107.132 89.8485 107.132 91.1184 108.339C92.1311 109.079 108.455 122.224 109.591 122.93C111.033 123.649 112.774 123.24 113.757 121.947C115.111 120.508 147.4 81.0158 147.4 81.0158C148.031 80.1057 149.272 79.888 150.168 80.5297C150.27 80.603 150.363 80.6831 150.45 80.7744Z" fill="black"/>
</g>
</g>
</g>
<defs>
<clipPath id="clip0_2849_2138">
<rect width="240" height="223.373" fill="white" transform="translate(0 0.0634766)"/>
</clipPath>
</defs>
</svg>
