<svg width="48" height="16" viewBox="0 0 48 16" fill="none" xmlns="http://www.w3.org/2000/svg">
<path d="M10.267 4.0625L9.74858 6.03693H0.224432L0.735795 4.0625H10.267ZM5.31676 15L0.458807 9.21875L0.465909 7.44318H2.86648C3.40152 7.44318 3.84896 7.34375 4.20881 7.14489C4.56866 6.94602 4.83854 6.67614 5.01847 6.33523C5.19839 5.99432 5.29072 5.60606 5.29545 5.17045C5.29072 4.51704 5.09896 3.98437 4.72017 3.57244C4.34612 3.15578 3.72822 2.94744 2.86648 2.94744H0.224432L0.806818 0.454545H2.86648C4.07386 0.454545 5.08002 0.636837 5.88494 1.00142C6.6946 1.36127 7.30066 1.875 7.70312 2.54261C8.11032 3.21023 8.31629 4.00568 8.32102 4.92898C8.31629 5.74811 8.17898 6.46307 7.90909 7.07386C7.64394 7.68466 7.22491 8.19366 6.65199 8.60085C6.08381 9.00805 5.3428 9.31108 4.42898 9.50994L4.31534 9.55256L8.66193 14.8722V15H5.31676ZM10.2812 0.454545L9.74858 2.45739H1.90767L2.44034 0.454545H10.2812ZM18.4915 0.454545V15H15.4162V3.37358H15.331L12 5.46165V2.73438L15.6009 0.454545H18.4915ZM27.6516 15.3196C26.43 15.3149 25.3789 15.0142 24.4982 14.4176C23.6223 13.821 22.9476 12.9569 22.4741 11.8253C22.0053 10.6937 21.7733 9.33239 21.7781 7.74148C21.7781 6.1553 22.0124 4.8035 22.4812 3.68608C22.9547 2.56865 23.6294 1.71875 24.5053 1.13636C25.386 0.549242 26.4348 0.255681 27.6516 0.255681C28.8685 0.255681 29.9149 0.549242 30.7908 1.13636C31.6715 1.72348 32.3486 2.57576 32.8221 3.69318C33.2956 4.80587 33.5299 6.1553 33.5252 7.74148C33.5252 9.33712 33.2885 10.7008 32.815 11.8324C32.3462 12.964 31.6739 13.8281 30.7979 14.4247C29.922 15.0213 28.8732 15.3196 27.6516 15.3196ZM27.6516 12.7699C28.485 12.7699 29.1502 12.3509 29.6474 11.5128C30.1445 10.6747 30.3907 9.41761 30.386 7.74148C30.386 6.63826 30.2724 5.7197 30.0451 4.9858C29.8226 4.25189 29.5053 3.70028 29.0934 3.33097C28.6862 2.96165 28.2056 2.77699 27.6516 2.77699C26.823 2.77699 26.1602 3.19129 25.663 4.01989C25.1658 4.84848 24.9149 6.08901 24.9102 7.74148C24.9102 8.8589 25.0214 9.79167 25.244 10.5398C25.4712 11.2831 25.7908 11.8419 26.2028 12.2159C26.6147 12.5852 27.0977 12.7699 27.6516 12.7699ZM41.4212 15.3196C40.1996 15.3149 39.1484 15.0142 38.2678 14.4176C37.3918 13.821 36.7171 12.9569 36.2436 11.8253C35.7749 10.6937 35.5429 9.33239 35.5476 7.74148C35.5476 6.1553 35.782 4.8035 36.2507 3.68608C36.7242 2.56865 37.3989 1.71875 38.2749 1.13636C39.1555 0.549242 40.2043 0.255681 41.4212 0.255681C42.638 0.255681 43.6844 0.549242 44.5604 1.13636C45.4411 1.72348 46.1181 2.57576 46.5916 3.69318C47.0651 4.80587 47.2995 6.1553 47.2947 7.74148C47.2947 9.33712 47.058 10.7008 46.5845 11.8324C46.1158 12.964 45.4434 13.8281 44.5675 14.4247C43.6915 15.0213 42.6428 15.3196 41.4212 15.3196ZM41.4212 12.7699C42.2545 12.7699 42.9197 12.3509 43.4169 11.5128C43.9141 10.6747 44.1603 9.41761 44.1555 7.74148C44.1555 6.63826 44.0419 5.7197 43.8146 4.9858C43.5921 4.25189 43.2749 3.70028 42.8629 3.33097C42.4557 2.96165 41.9751 2.77699 41.4212 2.77699C40.5926 2.77699 39.9297 3.19129 39.4325 4.01989C38.9354 4.84848 38.6844 6.08901 38.6797 7.74148C38.6797 8.8589 38.791 9.79167 39.0135 10.5398C39.2408 11.2831 39.5604 11.8419 39.9723 12.2159C40.3842 12.5852 40.8672 12.7699 41.4212 12.7699Z" fill="#1F4EAD"/>
</svg>
